<svg width="221" height="338" viewBox="0 0 221 338" fill="none" xmlns="http://www.w3.org/2000/svg">
<path d="M221.001 197.116H138.617C107.407 197.116 82.1065 222.365 82.1065 253.511V338H164.491C195.701 338 221.001 312.751 221.001 281.605V197.116Z" fill="url(#paint0_linear)"/>
<path d="M60.5611 113.957L60.0638 111.968C60.0638 111.939 60.0345 111.881 60.0638 111.851C60.0638 111.822 60.0929 111.764 60.0929 111.734C60.1222 111.705 60.1515 111.676 60.1808 111.647C60.21 111.617 60.2392 111.617 60.2685 111.588C60.2977 111.588 60.3562 111.588 60.3855 111.588C60.4147 111.588 60.4734 111.617 60.5026 111.617C60.5319 111.647 60.5611 111.676 60.5903 111.705C60.6196 111.734 60.6197 111.764 60.6489 111.822L60.9999 113.226L62.4043 112.875C62.4921 112.846 62.5505 112.875 62.6383 112.904C62.6968 112.933 62.7553 113.021 62.7553 113.08C62.7845 113.167 62.7553 113.226 62.726 113.313C62.6967 113.372 62.6383 113.43 62.5506 113.46L60.5611 113.957Z" fill="#110580"/>
<path d="M59.4783 108.839C59.4198 108.839 59.3613 108.81 59.332 108.752C59.2735 108.722 59.2442 108.664 59.2442 108.605L58.425 105.272C58.425 105.243 58.3958 105.184 58.425 105.155C58.425 105.126 58.4543 105.067 58.4543 105.038C58.4836 105.009 58.5128 104.979 58.542 104.95C58.5713 104.921 58.6005 104.921 58.6298 104.892C58.659 104.892 58.7176 104.892 58.7469 104.892C58.7761 104.892 58.8346 104.921 58.8639 104.921C58.8931 104.95 58.9223 104.979 58.9516 105.009C58.9809 105.038 58.9809 105.067 59.0102 105.126L59.8293 108.489C59.8293 108.518 59.8586 108.576 59.8293 108.605C59.8293 108.635 59.8 108.693 59.8 108.722C59.7708 108.752 59.7416 108.781 59.7123 108.81C59.683 108.839 59.6538 108.839 59.6246 108.869C59.5368 108.839 59.5076 108.839 59.4783 108.839ZM57.8106 102.143C57.7521 102.143 57.6936 102.114 57.6643 102.084C57.6058 102.055 57.5766 101.997 57.5766 101.938L56.7574 98.5754C56.7574 98.5461 56.7281 98.4877 56.7574 98.4584C56.7574 98.4292 56.7574 98.3707 56.7867 98.3415C56.8159 98.3122 56.8451 98.283 56.8744 98.2538C56.9036 98.2245 56.9623 98.1953 56.9915 98.1953C57.05 98.1953 57.0792 98.1953 57.1085 98.1953C57.1378 98.1953 57.1962 98.2245 57.2255 98.2538C57.2548 98.283 57.284 98.3122 57.3132 98.3415C57.3425 98.3707 57.3425 98.4292 57.3425 98.4584L58.1618 101.792C58.191 101.88 58.1617 101.938 58.1325 102.026C58.1032 102.084 58.0447 102.143 57.9569 102.172C57.8984 102.143 57.8691 102.143 57.8106 102.143ZM56.143 95.4465C56.0844 95.4465 56.0259 95.4172 55.9967 95.3587C55.9382 95.3295 55.909 95.271 55.909 95.2125L55.0898 91.8789C55.0898 91.8497 55.0898 91.7912 55.0898 91.762C55.0898 91.7328 55.119 91.6742 55.119 91.645C55.1482 91.6157 55.1776 91.5865 55.2068 91.5572C55.2361 91.528 55.2653 91.528 55.2946 91.4988C55.3238 91.4988 55.3823 91.4988 55.4115 91.4988C55.4408 91.4988 55.4994 91.5281 55.5287 91.5281C55.5579 91.5573 55.5871 91.5865 55.6164 91.6158C55.6457 91.645 55.6457 91.6742 55.675 91.7327L56.4941 95.0956C56.5233 95.1833 56.4941 95.2418 56.4648 95.3295C56.4356 95.388 56.377 95.4465 56.2892 95.4757C56.2307 95.4465 56.2015 95.4465 56.143 95.4465Z" fill="#110580"/>
<path d="M54.5048 88.7501C54.4463 88.7501 54.3878 88.7208 54.3586 88.6623C54.3001 88.6331 54.2707 88.5746 54.2707 88.5161L53.7734 86.5276L55.7628 86.0305C55.8506 86.0305 55.9092 86.0305 55.9677 86.089C56.0262 86.1182 56.0554 86.206 56.0847 86.2645C56.1139 86.323 56.0846 86.4107 56.0554 86.4692C56.0261 86.5276 55.9676 86.5861 55.8798 86.6154L54.4756 86.9663L54.8266 88.3699C54.8266 88.3991 54.8266 88.4576 54.8266 88.4868C54.8266 88.5161 54.7974 88.5746 54.7681 88.6038C54.7389 88.6331 54.7095 88.6623 54.6803 88.6916C54.651 88.7208 54.5925 88.7208 54.5633 88.7501C54.5925 88.7501 54.5634 88.7501 54.5048 88.7501Z" fill="#110580"/>
<path d="M17.4955 74.4504C17.437 74.4212 17.4076 74.3627 17.3784 74.3042C17.3491 74.2457 17.3491 74.158 17.3784 74.0995C17.4076 74.041 17.4662 73.9826 17.5247 73.9533C17.5832 73.9241 17.6418 73.9241 17.7295 73.9241L19.1631 74.1873L19.4263 72.7544C19.4263 72.6667 19.485 72.6082 19.5435 72.5497C19.602 72.4912 19.6897 72.4912 19.7775 72.4912C19.8652 72.5205 19.9238 72.5497 19.9823 72.6082C20.0408 72.6667 20.0407 72.7544 20.0407 72.8421L19.6898 74.8306L17.671 74.4797C17.5539 74.4797 17.5248 74.4504 17.4955 74.4504Z" fill="#110580"/>
<path d="M23.7556 49.2436C23.6971 49.2144 23.6679 49.1559 23.6386 49.1267C23.6093 49.0682 23.6093 49.0097 23.6093 48.9512L23.8726 47.5184L22.4391 47.2552C22.3805 47.2552 22.3513 47.226 22.3221 47.226C22.2928 47.1967 22.2635 47.1675 22.2342 47.1382C22.205 47.109 22.1758 47.0798 22.1758 47.0213C22.1758 46.992 22.1758 46.9335 22.1758 46.9043C22.1758 46.875 22.205 46.8166 22.2342 46.7873C22.2635 46.7581 22.2928 46.7288 22.3221 46.6996C22.3513 46.6703 22.3805 46.6704 22.4098 46.6411C22.439 46.6411 22.4975 46.6411 22.5268 46.6411L24.5163 46.992L24.1652 48.9805C24.1652 49.0682 24.1067 49.1267 24.0482 49.1852C23.9896 49.2437 23.9018 49.2436 23.814 49.2436C23.814 49.2729 23.7849 49.2729 23.7556 49.2436Z" fill="#110580"/>
<path d="M20.1287 69.6255C20.0702 69.5962 20.0408 69.5378 20.0116 69.5085C19.9823 69.45 19.9824 69.3915 19.9824 69.333L20.5967 65.941C20.5967 65.9117 20.626 65.8532 20.6553 65.824C20.6845 65.7947 20.7137 65.7656 20.743 65.7363C20.7722 65.7071 20.8309 65.707 20.8601 65.6778C20.8894 65.6778 20.9479 65.6778 20.9771 65.6778C21.0649 65.707 21.1234 65.7363 21.1527 65.7948C21.2112 65.8533 21.2111 65.941 21.2111 66.0287L20.5967 69.4208C20.5967 69.45 20.5675 69.5085 20.5675 69.5378C20.5383 69.567 20.509 69.5962 20.4797 69.6255C20.4504 69.6547 20.392 69.6548 20.3627 69.684C20.3334 69.684 20.275 69.684 20.2457 69.684C20.1872 69.684 20.158 69.6547 20.1287 69.6255ZM21.3281 62.8413C21.2696 62.812 21.2404 62.7536 21.2111 62.7244C21.1818 62.6659 21.1818 62.6074 21.1818 62.5489L21.7962 59.1568C21.7962 59.1276 21.8255 59.0691 21.8255 59.0398C21.8548 59.0106 21.884 58.9813 21.9132 58.9521C21.9425 58.9228 21.9718 58.9228 22.0011 58.8936C22.0596 58.8936 22.0888 58.8936 22.1181 58.8936C22.1473 58.8936 22.2058 58.9229 22.2351 58.9229C22.2643 58.9521 22.2937 58.9814 22.3229 59.0106C22.3522 59.0399 22.3521 59.0691 22.3814 59.1276C22.4106 59.186 22.3814 59.2152 22.3814 59.2445L21.7962 62.6366C21.767 62.7243 21.7377 62.7828 21.6792 62.8413C21.6207 62.8998 21.533 62.8998 21.4452 62.8998C21.3867 62.8705 21.3574 62.8705 21.3281 62.8413ZM22.5276 56.0571C22.4691 56.0279 22.4399 55.9694 22.4106 55.9402C22.3814 55.8817 22.3814 55.8232 22.3814 55.7647L22.9958 52.3726C22.9958 52.3433 23.0251 52.2849 23.0543 52.2556C23.0836 52.2264 23.1128 52.1971 23.1421 52.1679C23.1713 52.1387 23.2298 52.1387 23.2591 52.1094C23.2883 52.0802 23.3468 52.1094 23.376 52.1094C23.4346 52.1094 23.4639 52.1387 23.4932 52.1387C23.5224 52.1679 23.5516 52.1971 23.5809 52.2264C23.6102 52.2556 23.6102 52.2849 23.6395 52.3434C23.6395 52.3726 23.6395 52.4311 23.6395 52.4603L23.0251 55.8524C22.9958 55.9402 22.9666 55.9986 22.9081 56.0571C22.8495 56.1156 22.7617 56.1156 22.6739 56.1156C22.5862 56.0864 22.5569 56.0571 22.5276 56.0571Z" fill="#110580"/>
<path d="M62.3162 2.48535H9.68402C5.93921 2.48535 2.89648 5.52652 2.89648 9.26952V138.959C2.89648 142.702 5.93921 145.743 9.68402 145.743H62.3162C66.0903 145.743 69.1038 142.702 69.1038 138.959V9.26952C69.1038 5.52652 66.0611 2.48535 62.3162 2.48535Z" fill="white"/>
<path d="M62.9305 0H9.0402C6.64117 0 4.32997 0.964992 2.66236 2.6318C0.965489 4.32784 0 6.60875 0 9.0066V139.514C0 141.912 0.965489 144.193 2.66236 145.889C4.35923 147.585 6.64117 148.521 9.0402 148.521H62.9305C65.3295 148.521 67.6408 147.585 69.3376 145.889C71.0345 144.193 72 141.912 72 139.514V9.0066C72 6.60875 71.0345 4.32784 69.3376 2.6318C67.6408 0.935749 65.3295 0 62.9305 0ZM69.1036 139.105C69.1036 140.889 68.4014 142.614 67.1141 143.901C65.8268 145.158 64.1007 145.889 62.3161 145.889H9.68389C7.87 145.889 6.1439 145.187 4.88587 143.901C3.59859 142.643 2.89635 140.918 2.89635 139.105V9.41597C2.89635 7.63219 3.62785 5.90693 4.88587 4.62028C6.1439 3.36286 7.87 2.6318 9.68389 2.6318H16.3252C16.6762 2.6318 17.0272 2.77802 17.2613 3.01196C17.4953 3.2459 17.6417 3.59679 17.6417 3.94769V4.53254C17.6417 5.46829 18.022 6.34552 18.6657 6.98885C19.3093 7.63218 20.2162 8.01233 21.1525 8.01233H50.8184C51.2865 8.01233 51.7254 7.92463 52.1642 7.74918C52.5738 7.57372 52.9834 7.31051 53.3052 6.98885C53.627 6.66719 53.8904 6.28707 54.0659 5.84843C54.2414 5.43904 54.3292 4.97114 54.3292 4.50327V3.94769C54.3292 3.59679 54.4754 3.27514 54.7094 3.01196C54.9435 2.77802 55.2946 2.6318 55.6457 2.6318H62.2868C64.1007 2.6318 65.827 3.33362 67.085 4.62028C68.3723 5.87769 69.0744 7.60295 69.0744 9.41597V139.105H69.1036Z" fill="#868AE0"/>
<path d="M2.89648 7.57508V19.5923H69.0159V7.57508C69.0159 6.27535 68.3146 5.01825 67.029 4.08073C65.7435 3.16452 64.0197 2.63184 62.2374 2.63184H55.6051C55.2545 2.63184 54.933 2.73838 54.6701 2.90884C54.4363 3.0793 54.2903 3.33497 54.2903 3.59066V4.0168C54.2903 4.35771 54.2025 4.67729 54.0272 4.9969C53.8519 5.2952 53.5891 5.59353 53.2677 5.82791C52.9463 6.06229 52.5663 6.25402 52.1281 6.38186C51.719 6.50971 51.2517 6.57366 50.7842 6.57366H21.1575C20.2225 6.57366 19.346 6.29667 18.674 5.82791C18.002 5.35915 17.6514 4.6986 17.6514 4.03808V3.63326C17.6514 3.37758 17.5053 3.14321 17.2716 2.95144C17.0378 2.78099 16.6872 2.67444 16.3366 2.67444H9.67502C7.86353 2.67444 6.16894 3.18582 4.88336 4.12334C3.62701 5.01824 2.89648 6.27535 2.89648 7.57508Z" fill="#E8E8F7"/>
<path d="M45.7856 11.6968H24.6626C23.6971 11.6968 22.9072 12.4863 22.9072 13.4513C22.9072 14.4163 23.6971 15.2058 24.6626 15.2058H45.7856C46.7511 15.2058 47.541 14.4163 47.541 13.4513C47.541 12.4863 46.7511 11.6968 45.7856 11.6968Z" fill="#C5C6E3"/>
<path d="M23.9886 52.2439H55.6634C57.1171 52.2439 58.2955 53.9884 58.2955 56.1403V57.4927C58.2955 59.6446 57.1171 61.3891 55.6634 61.3891H23.9886C22.5349 61.3891 21.3564 59.6446 21.3564 57.4927V56.1403C21.3564 53.9884 22.5349 52.2439 23.9886 52.2439ZM23.9886 67.1048H58.7417C60.1954 67.1048 61.3738 68.8493 61.3738 71.0012V72.3537C61.3738 74.5056 60.1954 76.25 58.7417 76.25H23.9886C22.5349 76.25 21.3564 74.5056 21.3564 72.3537V71.0012C21.3564 68.8493 22.5349 67.1048 23.9886 67.1048ZM23.9886 81.9658H57.2026C58.6562 81.9658 59.8347 83.7103 59.8347 85.8622V87.2146C59.8347 89.3665 58.6562 91.111 57.2026 91.111H23.9886C22.5349 91.111 21.3564 89.3665 21.3564 87.2146V85.8622C21.3564 83.7103 22.5349 81.9658 23.9886 81.9658ZM23.9886 96.8268H59.5112C60.9649 96.8268 62.1434 98.5712 62.1434 100.723V102.076C62.1434 104.227 60.9649 105.972 59.5112 105.972H23.9886C22.5349 105.972 21.3564 104.227 21.3564 102.076V100.723C21.3564 98.5712 22.5349 96.8268 23.9886 96.8268ZM23.9886 111.688H54.1243C55.578 111.688 56.7564 113.432 56.7564 115.584V116.937C56.7564 119.088 55.578 120.833 54.1243 120.833H23.9886C22.5349 120.833 21.3564 119.088 21.3564 116.937V115.584C21.3564 113.432 22.5349 111.688 23.9886 111.688Z" fill="#E1E5F0"/>
<circle cx="14.2235" cy="55.6519" r="3.86605" fill="#C4C4C4"/>
<circle cx="14.2235" cy="71.1161" r="3.86605" fill="#C4C4C4"/>
<circle cx="14.2235" cy="86.5804" r="3.86605" fill="#C4C4C4"/>
<circle cx="14.2235" cy="102.045" r="3.86605" fill="#C4C4C4"/>
<path d="M14.4302 113.135C13.809 113.135 13.2017 113.319 12.6851 113.664C12.1685 114.009 11.7659 114.5 11.5282 115.074C11.2904 115.648 11.2282 116.279 11.3494 116.889C11.4706 117.498 11.7698 118.058 12.2091 118.497C12.6484 118.936 13.2081 119.236 13.8174 119.357C14.4267 119.478 15.0583 119.416 15.6323 119.178C16.2063 118.94 16.6969 118.538 17.042 118.021C17.3872 117.505 17.5714 116.897 17.5714 116.276C17.5704 115.443 17.2392 114.645 16.6503 114.056C16.0614 113.467 15.263 113.136 14.4302 113.135ZM15.9262 115.726L14.1541 117.417C14.1091 117.46 14.0493 117.484 13.9871 117.484C13.9249 117.484 13.8651 117.46 13.82 117.417L12.9342 116.572C12.8878 116.527 12.861 116.466 12.8595 116.402C12.858 116.338 12.8821 116.276 12.9264 116.23C12.9707 116.183 13.0316 116.156 13.0957 116.155C13.1599 116.153 13.2219 116.178 13.2683 116.222L13.9871 116.908L15.5921 115.376C15.6385 115.332 15.7005 115.309 15.7644 115.31C15.8282 115.312 15.8889 115.339 15.933 115.385C15.9772 115.431 16.0012 115.493 16 115.557C15.9987 115.621 15.9722 115.681 15.9262 115.726V115.726Z" fill="#0E43B3"/>
<path d="M75.5237 312.011L54.0708 312.012C54.0708 312.012 44.819 321.859 33.5375 326.677C22.2554 331.495 18.8712 338 18.8712 338L84.8711 337.997L75.5237 312.011Z" fill="#428DFC"/>
<path d="M67.8045 277.185L46.8115 272.787C46.8115 272.787 35.7242 280.527 23.6888 282.929C11.6535 285.33 6.99947 291 6.99947 291L71.5879 304.533L67.8045 277.185Z" fill="url(#paint1_linear)"/>
<path d="M136.373 162.137C136.373 162.137 87.582 170.718 74.8737 175.877C62.1648 181.034 61.2861 194.767 55.7774 223.266C49.3741 256.396 46.4337 272.968 46.4337 272.968L70.3832 277.813C70.3832 277.813 78.7556 273.62 81.5895 259.154C84.4233 244.688 82.9301 243.335 86.3697 235.579C89.8101 227.823 92.5622 223.612 92.5629 213.646C92.5637 203.68 98.3292 198.756 106.929 199.297C115.528 199.838 153.766 199.417 170.03 173.268L173.673 167.413C173.673 167.413 146.685 156.791 136.373 162.137Z" fill="url(#paint2_linear)"/>
<path d="M89.2785 117.458C89.2785 117.458 84.458 115.429 84.458 111.704C84.458 107.98 78.1313 105.4 78.1313 105.4L83.0269 115.135L85.6075 120.587C85.6082 120.586 90.9344 129.66 89.2785 117.458Z" fill="url(#paint3_linear)"/>
<path d="M92.2137 292.175C89.4199 298.489 81.4599 308.086 75.5229 312.01L54.07 312.01C54.9611 308.373 73.2123 233.495 80.4046 220.319C86.273 209.579 94.5564 198.227 102.797 188.338L123.39 164.312L143.816 168.385C144.535 168.095 145.859 167.879 146.653 167.615C148.126 167.12 149.516 172.726 151.416 171.415C154.651 173.031 171.879 171.545 174.24 172.473C172.729 189.942 157.638 202.785 139.804 211.519C106.539 227.812 112.614 235.915 109.814 246.822C107.035 257.735 105.091 264.246 98.7528 272.065C92.399 279.887 97.5274 280.129 92.2137 292.175Z" fill="#23286B"/>
<path d="M70.7341 117.924L83.1731 115.1C83.9094 114.933 84.3707 114.203 84.2028 113.468C84.1598 113.278 84.0766 113.1 83.9576 112.945L67.5675 91.5021C67.2369 91.07 66.6793 90.8743 66.1502 91.0052L53.6383 94.0988C52.9048 94.2807 52.4574 95.0192 52.6399 95.7503C52.6866 95.9344 52.7698 96.1076 52.8858 96.2574L69.3489 117.431C69.6752 117.849 70.216 118.042 70.7341 117.924Z" fill="#23286B"/>
<path d="M88.1055 120.399C88.1055 120.399 84.5505 117.725 83.026 115.134C83.026 115.134 80.6884 115.674 79.2317 115.909C79.2317 115.909 79.0412 112.215 71.7226 111.591C65.1237 111.027 65.9929 109.598 61.911 108.269C57.8285 106.938 56.163 108.138 55.9339 109.497C55.9339 109.497 60.2303 111.044 61.2199 112.629C62.2095 114.215 63.3918 118.094 66.9723 119.348C70.5527 120.601 82.9041 121.586 85.4781 129.848L88.1055 120.399Z" fill="url(#paint4_linear)"/>
<path opacity="0.66" d="M146.14 183.74C146.065 183.772 145.978 183.737 145.945 183.663C145.913 183.589 145.948 183.502 146.023 183.47C146.097 183.438 146.184 183.473 146.216 183.547C146.249 183.621 146.215 183.708 146.14 183.74ZM144.752 180.425C144.673 180.455 144.586 180.422 144.549 180.346C144.521 180.27 144.559 180.183 144.636 180.155C144.705 180.121 144.789 180.149 144.823 180.217C144.825 180.222 144.827 180.228 144.83 180.233C144.862 180.308 144.827 180.393 144.752 180.425ZM143.355 177.109C143.28 177.141 143.193 177.106 143.162 177.032C143.132 176.954 143.166 176.866 143.241 176.829C143.322 176.803 143.409 176.842 143.444 176.918C143.471 176.996 143.431 177.081 143.355 177.109ZM141.967 173.795C141.893 173.827 141.806 173.792 141.774 173.718C141.742 173.64 141.777 173.551 141.853 173.515C141.928 173.483 142.015 173.518 142.046 173.592C142.078 173.671 142.042 173.76 141.967 173.795ZM131.035 183.702C131.005 183.779 130.918 183.817 130.84 183.787C130.769 183.761 130.732 183.683 130.757 183.611C130.759 183.605 130.762 183.598 130.765 183.593C130.793 183.519 130.875 183.48 130.951 183.507C131.028 183.537 131.066 183.624 131.035 183.702ZM151.327 177.925C151.271 177.982 151.179 177.983 151.123 177.927C151.066 177.871 151.064 177.779 151.12 177.723C151.177 177.667 151.269 177.665 151.325 177.721C151.382 177.771 151.388 177.857 151.337 177.914C151.334 177.918 151.331 177.921 151.327 177.925ZM148.769 175.395C148.725 175.44 148.655 175.448 148.603 175.413L148.592 175.411C148.581 175.411 148.571 175.406 148.564 175.397C148.529 175.365 148.512 175.317 148.52 175.269C148.525 175.237 148.54 175.207 148.562 175.183C148.618 175.127 148.709 175.126 148.766 175.181C148.826 175.237 148.829 175.33 148.773 175.389C148.773 175.391 148.771 175.394 148.769 175.395ZM146.21 172.865C146.152 172.919 146.061 172.914 146.007 172.857C145.951 172.801 145.949 172.709 146.005 172.653C146.061 172.596 146.153 172.595 146.21 172.651C146.269 172.707 146.272 172.8 146.216 172.859C146.214 172.862 146.213 172.863 146.21 172.865ZM138.686 183.23C138.681 183.312 138.614 183.378 138.532 183.382C138.447 183.382 138.379 183.313 138.379 183.229C138.38 183.144 138.449 183.076 138.533 183.077C138.616 183.083 138.682 183.149 138.686 183.23ZM138.675 179.638C138.672 179.72 138.604 179.782 138.522 179.779C138.444 179.785 138.375 179.726 138.369 179.648C138.369 179.645 138.368 179.64 138.368 179.636C138.371 179.552 138.439 179.485 138.522 179.484C138.604 179.491 138.67 179.557 138.675 179.638ZM165.79 184.629C165.69 184.746 165.515 184.76 165.396 184.661C165.394 184.659 165.391 184.657 165.388 184.655C165.272 184.555 165.261 184.381 165.359 184.266C165.36 184.265 165.36 184.265 165.361 184.265C165.461 184.148 165.636 184.133 165.755 184.232C165.757 184.234 165.76 184.236 165.763 184.239C165.879 184.338 165.891 184.512 165.792 184.627C165.792 184.628 165.791 184.629 165.79 184.629ZM160.633 180.164C160.529 180.281 160.349 180.294 160.231 180.19C160.113 180.087 160.101 179.907 160.204 179.79L160.205 179.79C160.305 179.674 160.48 179.662 160.595 179.76C160.596 179.761 160.596 179.761 160.596 179.762C160.715 179.865 160.73 180.042 160.633 180.164ZM155.464 175.697C155.361 175.815 155.18 175.827 155.063 175.723C154.945 175.62 154.933 175.44 155.037 175.323C155.14 175.205 155.321 175.194 155.438 175.297C155.556 175.397 155.571 175.572 155.471 175.69C155.469 175.693 155.467 175.695 155.464 175.697ZM145.269 201.696C145.277 201.852 145.159 201.984 145.003 201.995C144.854 202.011 144.719 201.904 144.703 201.756C144.702 201.751 144.702 201.746 144.701 201.741C144.693 201.585 144.811 201.453 144.967 201.442C145.121 201.429 145.256 201.542 145.269 201.696ZM144.792 194.907C144.799 195.063 144.678 195.195 144.522 195.201C144.368 195.208 144.237 195.093 144.226 194.94C144.214 194.787 144.328 194.652 144.482 194.64C144.64 194.635 144.775 194.751 144.792 194.907ZM144.308 188.106C144.32 188.259 144.205 188.392 144.052 188.405C144.049 188.405 144.045 188.405 144.041 188.405C143.892 188.421 143.757 188.314 143.741 188.166C143.74 188.161 143.74 188.156 143.739 188.151C143.734 187.993 143.851 187.86 144.007 187.842C144.164 187.833 144.297 187.951 144.308 188.106ZM143.832 181.316C143.84 181.472 143.72 181.605 143.564 181.614C143.409 181.622 143.276 181.504 143.266 181.349C143.253 181.196 143.367 181.061 143.522 181.05C143.522 181.05 143.522 181.05 143.522 181.05C143.679 181.035 143.817 181.149 143.831 181.305C143.832 181.309 143.832 181.312 143.832 181.316ZM143.348 174.515C143.361 174.668 143.247 174.802 143.093 174.815C142.939 174.828 142.805 174.714 142.793 174.561C142.793 174.557 142.792 174.553 142.792 174.549C142.778 174.397 142.89 174.263 143.042 174.249C143.044 174.249 143.046 174.249 143.048 174.248C143.203 174.242 143.337 174.36 143.348 174.515ZM158.261 195.035C158.12 195.1 157.954 195.038 157.889 194.898C157.824 194.758 157.886 194.592 158.027 194.527C158.165 194.464 158.327 194.522 158.395 194.656C158.461 194.798 158.401 194.966 158.261 195.035ZM155.208 188.937C155.067 189.002 154.901 188.94 154.836 188.8C154.771 188.661 154.833 188.494 154.974 188.429C155.112 188.366 155.275 188.424 155.342 188.56C155.407 188.701 155.348 188.868 155.208 188.937ZM152.153 182.85C152.009 182.917 151.839 182.854 151.771 182.711C151.706 182.573 151.762 182.408 151.897 182.337C152.038 182.263 152.211 182.317 152.285 182.456C152.359 182.596 152.305 182.769 152.166 182.843C152.163 182.846 152.158 182.847 152.153 182.85ZM149.103 176.743C148.967 176.815 148.798 176.763 148.725 176.627C148.724 176.625 148.723 176.622 148.722 176.619C148.65 176.482 148.703 176.313 148.841 176.242C148.978 176.171 149.147 176.224 149.219 176.361C149.221 176.364 149.222 176.369 149.224 176.373C149.295 176.502 149.247 176.664 149.118 176.735C149.114 176.737 149.108 176.74 149.103 176.743ZM132.323 196.92C132.27 197.067 132.11 197.143 131.961 197.094C131.816 197.047 131.737 196.892 131.785 196.747C131.785 196.746 131.786 196.745 131.786 196.744C131.824 196.6 131.972 196.515 132.117 196.552C132.123 196.554 132.131 196.556 132.137 196.558C132.285 196.614 132.365 196.77 132.323 196.92ZM134.487 190.454C134.433 190.6 134.276 190.679 134.125 190.638C133.978 190.586 133.901 190.426 133.951 190.278C134.001 190.131 134.16 190.053 134.307 190.103C134.309 190.103 134.31 190.103 134.311 190.104C134.457 190.151 134.535 190.306 134.488 190.45C134.488 190.452 134.488 190.453 134.487 190.454ZM136.65 183.997C136.606 184.139 136.455 184.22 136.311 184.177C136.307 184.175 136.303 184.174 136.298 184.173C136.149 184.129 136.065 183.974 136.109 183.825C136.11 183.82 136.112 183.816 136.113 183.811C136.164 183.662 136.325 183.585 136.474 183.635C136.623 183.686 136.7 183.846 136.65 183.995C136.65 183.996 136.65 183.997 136.65 183.997ZM138.824 177.533C138.771 177.68 138.611 177.756 138.463 177.707C138.32 177.663 138.239 177.512 138.282 177.37C138.284 177.365 138.285 177.362 138.286 177.357C138.334 177.21 138.49 177.129 138.639 177.172C138.788 177.223 138.871 177.382 138.824 177.533ZM164.179 191.895C164.062 191.967 163.907 191.932 163.832 191.816C163.758 191.7 163.793 191.545 163.909 191.47C164.026 191.396 164.181 191.431 164.256 191.547C164.256 191.548 164.256 191.548 164.257 191.549C164.33 191.665 164.296 191.819 164.179 191.895ZM160.945 186.738C160.827 186.81 160.673 186.775 160.598 186.659C160.52 186.544 160.55 186.389 160.666 186.311C160.781 186.234 160.937 186.264 161.015 186.378C161.018 186.383 161.02 186.386 161.023 186.391C161.098 186.504 161.067 186.656 160.954 186.73C160.95 186.733 160.947 186.736 160.945 186.738ZM157.812 181.433C157.802 181.496 157.764 181.55 157.71 181.582C157.592 181.654 157.438 181.619 157.363 181.504C157.287 181.385 157.322 181.226 157.441 181.149C157.441 181.149 157.442 181.149 157.443 181.148C157.514 181.103 157.603 181.096 157.681 181.13L157.691 181.131C157.735 181.149 157.771 181.183 157.79 181.226C157.833 181.287 157.841 181.365 157.812 181.433ZM154.475 176.425C154.354 176.498 154.197 176.459 154.124 176.339C154.052 176.22 154.09 176.065 154.208 175.991C154.326 175.918 154.481 175.954 154.555 176.07C154.632 176.189 154.596 176.347 154.478 176.424C154.476 176.425 154.475 176.425 154.475 176.425ZM138.96 195.954C138.924 196.09 138.787 196.174 138.649 196.145C138.517 196.116 138.434 195.986 138.463 195.855C138.464 195.852 138.465 195.849 138.466 195.845C138.494 195.709 138.628 195.623 138.763 195.652C138.765 195.652 138.766 195.652 138.768 195.652C138.901 195.687 138.986 195.819 138.96 195.954ZM140.324 190.038C140.291 190.17 140.156 190.252 140.023 190.221C139.892 190.191 139.808 190.062 139.838 189.931C139.838 189.927 139.839 189.924 139.84 189.92C139.868 189.785 140.002 189.698 140.138 189.727C140.139 189.727 140.14 189.728 140.142 189.728C140.276 189.767 140.357 189.903 140.324 190.038ZM141.699 184.103C141.67 184.239 141.537 184.325 141.401 184.297C141.399 184.297 141.398 184.296 141.396 184.296C141.268 184.272 141.183 184.147 141.208 184.02C141.21 184.012 141.211 184.004 141.213 183.997C141.242 183.862 141.375 183.775 141.511 183.804C141.513 183.804 141.514 183.805 141.515 183.805C141.648 183.84 141.728 183.972 141.699 184.103ZM143.071 178.19C143.036 178.324 142.896 178.406 142.761 178.369C142.63 178.335 142.55 178.203 142.578 178.07C142.612 177.937 142.745 177.854 142.88 177.878C143.017 177.916 143.101 178.052 143.071 178.19ZM144.447 172.256C144.417 172.392 144.281 172.478 144.145 172.449C144.008 172.419 143.922 172.284 143.952 172.148V172.147C143.988 172.011 144.125 171.928 144.263 171.957C144.393 171.995 144.472 172.124 144.447 172.256ZM166.731 177.343C166.652 177.454 166.497 177.48 166.386 177.403C166.383 177.401 166.38 177.399 166.377 177.397C166.268 177.323 166.239 177.175 166.313 177.066C166.316 177.062 166.319 177.058 166.322 177.054C166.399 176.939 166.556 176.91 166.67 176.986C166.672 176.987 166.674 176.988 166.678 176.991C166.788 177.074 166.811 177.23 166.731 177.343ZM152.046 193.181C152.064 193.318 151.969 193.445 151.833 193.467C151.697 193.489 151.568 193.399 151.545 193.265C151.524 193.128 151.613 192.998 151.749 192.968C151.89 192.946 152.021 193.041 152.046 193.181ZM151.032 187.182C151.059 187.312 150.975 187.44 150.844 187.467C150.84 187.467 150.834 187.468 150.829 187.469C150.694 187.491 150.564 187.401 150.541 187.267C150.521 187.13 150.61 186.999 150.745 186.97C150.882 186.951 151.01 187.045 151.032 187.182ZM150.027 181.183C150.051 181.318 149.959 181.447 149.824 181.47C149.689 181.494 149.559 181.403 149.536 181.268C149.513 181.133 149.604 181.004 149.739 180.981C149.874 180.957 150.003 181.048 150.027 181.183ZM149.022 175.186C149.045 175.321 148.954 175.45 148.819 175.473C148.742 175.489 148.661 175.467 148.603 175.413L148.593 175.411C148.557 175.372 148.53 175.322 148.521 175.269C148.503 175.132 148.598 175.005 148.734 174.983C148.869 174.959 148.998 175.05 149.022 175.186ZM129.199 188.321C129.125 188.429 128.977 188.458 128.867 188.385C128.863 188.382 128.859 188.379 128.855 188.376C128.739 188.299 128.709 188.143 128.786 188.029C128.787 188.027 128.789 188.025 128.791 188.021C128.877 187.912 129.033 187.889 129.146 187.968C129.257 188.047 129.285 188.201 129.206 188.312C129.203 188.316 129.201 188.319 129.199 188.321ZM132.746 183.368C132.664 183.481 132.506 183.508 132.39 183.431C132.277 183.346 132.255 183.187 132.339 183.074C132.42 182.968 132.569 182.941 132.682 183.013C132.796 183.088 132.829 183.242 132.753 183.356C132.753 183.36 132.749 183.364 132.746 183.368ZM163.781 176.824C163.719 176.88 163.624 176.876 163.568 176.815C163.512 176.753 163.516 176.659 163.577 176.603C163.639 176.547 163.734 176.55 163.79 176.612C163.845 176.674 163.84 176.767 163.781 176.824ZM149.635 182.014C149.632 182.096 149.565 182.158 149.483 182.156C149.401 182.153 149.338 182.085 149.34 182.004C149.343 181.922 149.411 181.859 149.493 181.862C149.575 181.865 149.638 181.933 149.635 182.014ZM149.766 178.431C149.758 178.514 149.686 178.576 149.604 178.571C149.522 178.568 149.459 178.5 149.462 178.419C149.461 178.34 149.525 178.278 149.603 178.277C149.607 178.277 149.611 178.277 149.615 178.278C149.699 178.277 149.767 178.345 149.767 178.428C149.766 178.429 149.766 178.43 149.766 178.431ZM149.886 174.847C149.884 174.929 149.816 174.992 149.735 174.989C149.653 174.987 149.589 174.919 149.592 174.838C149.592 174.837 149.592 174.837 149.592 174.836C149.591 174.758 149.655 174.695 149.732 174.694C149.736 174.694 149.74 174.694 149.744 174.695C149.824 174.697 149.889 174.766 149.886 174.847C149.886 174.847 149.886 174.847 149.886 174.847ZM156.624 179.042C156.547 179.064 156.465 179.027 156.432 178.954C156.402 178.88 156.437 178.796 156.512 178.766C156.515 178.765 156.517 178.764 156.52 178.763C156.593 178.732 156.677 178.765 156.707 178.837C156.709 178.842 156.711 178.845 156.712 178.85C156.739 178.927 156.701 179.013 156.624 179.042ZM155.354 175.683C155.278 175.706 155.195 175.669 155.162 175.596C155.136 175.52 155.175 175.435 155.25 175.405C155.321 175.372 155.406 175.402 155.44 175.474C155.441 175.477 155.442 175.48 155.443 175.482C155.476 175.559 155.44 175.648 155.363 175.68C155.361 175.68 155.358 175.682 155.354 175.683ZM142.933 178.599C142.901 178.673 142.814 178.706 142.739 178.673C142.665 178.641 142.631 178.554 142.664 178.48C142.689 178.409 142.769 178.372 142.84 178.397C142.846 178.399 142.852 178.401 142.858 178.405C142.931 178.436 142.966 178.521 142.935 178.593C142.934 178.595 142.933 178.597 142.933 178.599ZM144.427 175.335C144.391 175.411 144.3 175.442 144.223 175.408C144.152 175.374 144.122 175.288 144.157 175.218C144.157 175.218 144.157 175.217 144.157 175.217C144.184 175.146 144.262 175.108 144.333 175.134C144.339 175.136 144.346 175.138 144.351 175.142C144.424 175.173 144.459 175.258 144.428 175.33C144.429 175.332 144.428 175.333 144.427 175.335ZM166.35 180.383C166.275 180.432 166.174 180.41 166.126 180.335C166.125 180.334 166.125 180.332 166.123 180.331C166.071 180.256 166.09 180.153 166.165 180.102C166.168 180.1 166.171 180.097 166.176 180.095C166.251 180.046 166.352 180.068 166.4 180.142C166.401 180.144 166.401 180.145 166.403 180.147C166.452 180.226 166.43 180.332 166.35 180.383ZM164.144 176.935C164.063 176.986 163.957 176.962 163.906 176.882C163.855 176.801 163.879 176.695 163.959 176.645C164.035 176.596 164.135 176.617 164.183 176.692C164.184 176.694 164.185 176.695 164.186 176.697C164.242 176.769 164.226 176.873 164.154 176.927C164.151 176.93 164.148 176.932 164.144 176.935ZM149.395 183.304C149.381 183.39 149.3 183.448 149.213 183.433C149.207 183.432 149.2 183.431 149.194 183.429C149.104 183.408 149.049 183.317 149.069 183.228C149.093 183.139 149.179 183.081 149.271 183.093C149.364 183.117 149.419 183.211 149.395 183.302C149.396 183.303 149.396 183.304 149.395 183.304ZM150.287 179.306C150.263 179.399 150.17 179.454 150.078 179.43C150.077 179.43 150.077 179.43 150.076 179.43C149.986 179.409 149.931 179.319 149.951 179.229C149.975 179.141 150.062 179.082 150.153 179.095C150.246 179.121 150.304 179.213 150.287 179.306ZM151.161 175.298C151.15 175.385 151.072 175.448 150.984 175.437C150.976 175.437 150.967 175.434 150.959 175.432C150.869 175.411 150.814 175.321 150.834 175.231C150.858 175.143 150.945 175.084 151.037 175.097C151.126 175.119 151.18 175.208 151.161 175.298ZM157.812 181.433C157.792 181.448 157.771 181.458 157.746 181.464C157.656 181.481 157.569 181.421 157.552 181.331C157.552 181.329 157.552 181.328 157.552 181.325C157.537 181.237 157.592 181.152 157.68 181.129L157.69 181.13C157.781 181.114 157.868 181.173 157.884 181.264C157.884 181.266 157.885 181.267 157.885 181.269C157.899 181.335 157.869 181.4 157.812 181.433ZM157.16 177.234C157.179 177.323 157.123 177.41 157.034 177.43C157.033 177.43 157.033 177.43 157.032 177.431C156.939 177.447 156.85 177.392 156.825 177.301C156.813 177.206 156.874 177.119 156.966 177.096C157.058 177.08 157.144 177.142 157.16 177.234ZM142.474 178.158C142.42 178.235 142.315 178.254 142.238 178.199C142.236 178.198 142.235 178.197 142.234 178.196C142.16 178.143 142.142 178.041 142.194 177.968C142.241 177.891 142.339 177.867 142.416 177.912C142.419 177.914 142.423 177.915 142.426 177.918C142.504 177.971 142.527 178.078 142.474 178.158ZM144.819 174.799C144.772 174.872 144.674 174.894 144.601 174.847C144.597 174.844 144.593 174.841 144.589 174.839C144.512 174.793 144.487 174.694 144.532 174.618C144.535 174.615 144.536 174.612 144.538 174.608C144.592 174.529 144.7 174.508 144.78 174.56C144.857 174.615 144.875 174.722 144.819 174.799ZM163.205 191.414C163.231 191.572 163.123 191.721 162.964 191.746C162.805 191.772 162.656 191.665 162.63 191.507C162.603 191.348 162.711 191.2 162.87 191.174C163.03 191.149 163.178 191.256 163.205 191.414ZM162.116 184.479C162.136 184.639 162.025 184.786 161.865 184.81C161.706 184.83 161.561 184.718 161.541 184.559C161.521 184.401 161.633 184.257 161.793 184.237C161.949 184.218 162.091 184.324 162.116 184.479ZM161.017 177.542C161.044 177.7 160.936 177.849 160.777 177.875C160.619 177.9 160.469 177.793 160.443 177.635C160.417 177.477 160.525 177.328 160.683 177.303C160.842 177.276 160.991 177.383 161.017 177.542ZM135.416 191.63C135.316 191.758 135.133 191.786 134.998 191.695C134.87 191.595 134.847 191.41 134.947 191.284C135.044 191.161 135.221 191.134 135.349 191.224C135.478 191.321 135.508 191.499 135.416 191.63ZM139.563 185.956C139.468 186.083 139.287 186.112 139.156 186.022C139.025 185.929 138.995 185.747 139.089 185.616C139.182 185.486 139.365 185.455 139.496 185.549L139.497 185.55C139.626 185.645 139.655 185.825 139.563 185.956ZM143.711 180.282C143.615 180.41 143.435 180.44 143.303 180.348C143.175 180.249 143.147 180.066 143.239 179.932C143.339 179.804 143.524 179.782 143.652 179.881C143.775 179.978 143.801 180.154 143.711 180.282ZM147.857 174.609C147.761 174.737 147.581 174.767 147.45 174.675C147.322 174.574 147.294 174.393 147.385 174.259C147.478 174.133 147.658 174.104 147.784 174.198C147.786 174.2 147.787 174.201 147.79 174.203C147.918 174.287 147.955 174.459 147.871 174.587C147.868 174.594 147.862 174.601 147.857 174.609ZM169.572 178.569C169.434 178.654 169.253 178.609 169.167 178.472C169.082 178.334 169.126 178.153 169.264 178.068C169.403 177.983 169.584 178.027 169.669 178.165C169.751 178.304 169.709 178.481 169.572 178.569ZM150.448 194.761C150.403 194.914 150.248 195.007 150.091 194.977C149.937 194.934 149.846 194.777 149.886 194.622C149.919 194.468 150.072 194.371 150.227 194.404C150.229 194.405 150.231 194.405 150.232 194.405C150.39 194.444 150.487 194.603 150.448 194.761C150.448 194.76 150.448 194.76 150.448 194.761ZM152.101 187.929C152.063 188.087 151.904 188.183 151.745 188.145H151.744C151.592 188.108 151.499 187.953 151.537 187.801C151.572 187.645 151.728 187.548 151.884 187.584C152.04 187.62 152.137 187.774 152.101 187.929ZM153.754 181.108C153.72 181.262 153.568 181.36 153.413 181.326C153.411 181.325 153.409 181.325 153.408 181.325C153.249 181.291 153.147 181.136 153.181 180.976C153.214 180.818 153.371 180.716 153.53 180.75C153.689 180.783 153.791 180.939 153.757 181.098C153.755 181.1 153.754 181.104 153.754 181.108ZM154.718 197.019C154.683 197.174 154.528 197.271 154.373 197.236C154.217 197.201 154.119 197.046 154.155 196.891C154.189 196.739 154.338 196.643 154.491 196.673C154.65 196.705 154.751 196.86 154.718 197.019ZM156.08 190.157C156.047 190.315 155.891 190.416 155.732 190.383C155.578 190.349 155.478 190.2 155.502 190.046C155.538 189.888 155.691 189.785 155.852 189.809C156.009 189.847 156.109 189.999 156.08 190.157ZM157.441 183.294C157.409 183.453 157.252 183.554 157.093 183.52C156.936 183.491 156.834 183.339 156.863 183.184C156.893 183.027 157.045 182.925 157.202 182.955C157.36 182.987 157.465 183.136 157.441 183.294ZM158.792 176.431C158.768 176.583 158.624 176.687 158.473 176.663C158.467 176.662 158.46 176.66 158.454 176.659C158.299 176.628 158.197 176.478 158.224 176.322C158.254 176.166 158.406 176.064 158.563 176.094C158.721 176.125 158.823 176.276 158.792 176.431ZM141.666 173.093C141.529 173.178 141.35 173.139 141.259 173.007C141.174 172.874 141.212 172.697 141.345 172.611C141.469 172.522 141.643 172.549 141.734 172.674C141.737 172.678 141.739 172.682 141.742 172.687C141.835 172.818 141.803 172.998 141.671 173.09C141.67 173.09 141.668 173.092 141.666 173.093ZM167.943 186.259C167.973 186.414 167.87 186.563 167.716 186.593C167.715 186.593 167.714 186.593 167.714 186.594C167.557 186.627 167.402 186.528 167.367 186.373C167.338 186.215 167.44 186.062 167.599 186.028C167.756 186.001 167.908 186.102 167.943 186.259ZM166.558 179.394C166.591 179.549 166.492 179.702 166.336 179.736C166.179 179.769 166.026 179.67 165.992 179.515C165.992 179.513 165.991 179.511 165.991 179.509C165.964 179.352 166.066 179.2 166.223 179.165C166.379 179.135 166.528 179.237 166.559 179.391C166.558 179.392 166.558 179.393 166.558 179.394ZM142.883 188.367C142.79 188.499 142.609 188.533 142.474 188.443C142.343 188.354 142.308 188.177 142.397 188.046C142.479 187.913 142.653 187.871 142.787 187.951C142.79 187.953 142.793 187.956 142.798 187.958C142.933 188.044 142.975 188.223 142.889 188.358C142.887 188.362 142.886 188.365 142.883 188.367ZM146.774 182.546C146.682 182.678 146.5 182.712 146.366 182.622C146.234 182.533 146.199 182.356 146.288 182.225C146.37 182.092 146.545 182.049 146.678 182.13C146.682 182.132 146.685 182.134 146.689 182.137C146.825 182.223 146.866 182.402 146.78 182.537C146.778 182.54 146.777 182.543 146.774 182.546ZM150.667 176.724C150.574 176.857 150.392 176.891 150.258 176.801C150.126 176.712 150.091 176.534 150.18 176.404C150.268 176.269 150.449 176.231 150.584 176.318C150.719 176.406 150.757 176.586 150.669 176.721C150.669 176.722 150.667 176.723 150.667 176.724ZM154.568 184.943C154.519 185.054 154.391 185.104 154.279 185.056C154.171 185.01 154.119 184.885 154.162 184.776C154.202 184.668 154.324 184.613 154.433 184.654C154.44 184.656 154.447 184.659 154.454 184.663C154.562 184.711 154.612 184.834 154.568 184.943ZM156.65 180.103C156.601 180.214 156.471 180.266 156.359 180.217C156.247 180.169 156.196 180.039 156.245 179.928C156.245 179.927 156.245 179.926 156.245 179.926C156.292 179.816 156.419 179.764 156.53 179.81C156.532 179.811 156.534 179.812 156.536 179.813C156.647 179.864 156.696 179.991 156.65 180.103ZM158.732 175.253C158.683 175.364 158.552 175.414 158.441 175.365C158.33 175.316 158.279 175.186 158.328 175.075C158.378 174.964 158.508 174.913 158.619 174.962C158.729 175.013 158.778 175.142 158.732 175.253ZM165.79 184.415C165.786 184.535 165.687 184.63 165.566 184.629C165.448 184.621 165.355 184.525 165.353 184.407C165.355 184.287 165.455 184.191 165.574 184.193C165.575 184.193 165.576 184.193 165.577 184.193C165.693 184.191 165.79 184.284 165.791 184.399C165.79 184.404 165.79 184.41 165.79 184.415ZM165.86 179.135C165.855 179.256 165.757 179.354 165.635 179.358C165.515 179.356 165.419 179.257 165.42 179.138C165.42 179.137 165.42 179.136 165.42 179.135C165.418 179.02 165.509 178.923 165.626 178.921C165.628 178.921 165.631 178.921 165.634 178.921C165.754 178.917 165.855 179.011 165.858 179.131C165.86 179.133 165.86 179.134 165.86 179.135ZM147.046 176.775C146.963 176.858 146.829 176.86 146.745 176.778C146.744 176.777 146.742 176.775 146.74 176.773C146.653 176.692 146.65 176.556 146.731 176.47C146.735 176.466 146.739 176.462 146.744 176.457C146.834 176.377 146.974 176.385 147.053 176.475C147.129 176.561 147.126 176.692 147.046 176.775ZM163.737 177.439C163.676 177.528 163.554 177.553 163.464 177.493C163.378 177.442 163.348 177.333 163.397 177.247C163.4 177.242 163.404 177.236 163.408 177.231C163.458 177.141 163.57 177.109 163.659 177.157C163.664 177.159 163.668 177.162 163.673 177.165C163.766 177.218 163.797 177.336 163.745 177.427C163.741 177.431 163.739 177.434 163.737 177.439Z" fill="white"/>
<path opacity="0.66" d="M133.292 175.327C133.218 175.359 133.131 175.324 133.098 175.25C133.066 175.175 133.101 175.089 133.175 175.057C133.25 175.025 133.337 175.06 133.369 175.134C133.402 175.208 133.367 175.295 133.292 175.327ZM131.905 172.012C131.826 172.042 131.738 172.008 131.701 171.933C131.673 171.856 131.712 171.77 131.789 171.741C131.857 171.707 131.941 171.736 131.976 171.804C131.978 171.809 131.98 171.814 131.982 171.819C132.014 171.895 131.979 171.979 131.905 172.012ZM118.188 175.288C118.157 175.365 118.071 175.404 117.993 175.373C117.922 175.347 117.884 175.269 117.91 175.197C117.912 175.191 117.914 175.185 117.918 175.18C117.946 175.106 118.028 175.066 118.103 175.093C118.181 175.124 118.219 175.211 118.188 175.288ZM125.838 174.817C125.833 174.9 125.766 174.965 125.684 174.97C125.599 174.969 125.531 174.9 125.531 174.816C125.532 174.732 125.601 174.663 125.685 174.664C125.769 174.669 125.834 174.735 125.838 174.817ZM125.827 171.225C125.824 171.306 125.756 171.37 125.674 171.366C125.596 171.372 125.527 171.313 125.521 171.235C125.521 171.231 125.52 171.227 125.52 171.223C125.523 171.139 125.591 171.072 125.674 171.071C125.756 171.077 125.822 171.143 125.827 171.225ZM152.942 176.215C152.842 176.332 152.667 176.347 152.548 176.248C152.546 176.246 152.543 176.243 152.54 176.241C152.424 176.142 152.413 175.968 152.511 175.853C152.512 175.852 152.512 175.851 152.513 175.851C152.613 175.734 152.788 175.72 152.907 175.819C152.909 175.821 152.912 175.823 152.915 175.825C153.031 175.925 153.043 176.099 152.944 176.214C152.945 176.214 152.943 176.215 152.942 176.215ZM132.421 193.283C132.429 193.439 132.311 193.571 132.155 193.582C132.006 193.598 131.871 193.491 131.854 193.342C131.854 193.337 131.854 193.332 131.853 193.327C131.845 193.172 131.963 193.039 132.119 193.028C132.273 193.015 132.408 193.129 132.421 193.283ZM131.945 186.493C131.952 186.65 131.831 186.781 131.674 186.788C131.521 186.794 131.39 186.68 131.379 186.527C131.366 186.373 131.481 186.239 131.635 186.227C131.792 186.221 131.927 186.338 131.945 186.493ZM131.46 179.692C131.473 179.846 131.357 179.979 131.204 179.991C131.201 179.991 131.198 179.992 131.194 179.992C131.044 180.008 130.91 179.901 130.893 179.752C130.893 179.747 130.893 179.742 130.892 179.737C130.887 179.58 131.004 179.446 131.16 179.429C131.316 179.419 131.45 179.537 131.46 179.692ZM130.985 172.903C130.993 173.058 130.873 173.191 130.717 173.2C130.561 173.208 130.428 173.091 130.418 172.936C130.406 172.782 130.52 172.648 130.674 172.636C130.674 172.636 130.674 172.636 130.675 172.636C130.831 172.622 130.969 172.736 130.984 172.892C130.985 172.895 130.985 172.898 130.985 172.903ZM145.413 186.621C145.272 186.685 145.106 186.624 145.041 186.484C144.976 186.344 145.038 186.178 145.178 186.113C145.315 186.049 145.479 186.108 145.547 186.242C145.613 186.384 145.555 186.552 145.413 186.621ZM142.361 180.524C142.22 180.588 142.054 180.527 141.989 180.387C141.924 180.247 141.986 180.081 142.126 180.016C142.263 179.953 142.427 180.011 142.494 180.146C142.561 180.287 142.5 180.455 142.361 180.524ZM139.305 174.437C139.161 174.504 138.991 174.441 138.923 174.299C138.858 174.16 138.914 173.995 139.049 173.924C139.19 173.851 139.363 173.904 139.437 174.043C139.511 174.183 139.457 174.356 139.318 174.43C139.315 174.433 139.31 174.435 139.305 174.437ZM119.475 188.507C119.423 188.654 119.262 188.731 119.114 188.681C118.969 188.634 118.89 188.479 118.938 188.334C118.938 188.333 118.938 188.332 118.938 188.331C118.976 188.187 119.125 188.102 119.27 188.14C119.276 188.141 119.283 188.143 119.29 188.146C119.437 188.201 119.517 188.357 119.475 188.507ZM121.639 182.041C121.585 182.187 121.428 182.265 121.277 182.225C121.13 182.172 121.053 182.012 121.103 181.865C121.153 181.718 121.312 181.64 121.459 181.689C121.46 181.69 121.462 181.69 121.463 181.691C121.609 181.737 121.687 181.893 121.64 182.037C121.64 182.039 121.64 182.039 121.639 182.041ZM123.802 175.584C123.759 175.726 123.608 175.807 123.464 175.764C123.459 175.763 123.456 175.761 123.451 175.76C123.302 175.717 123.218 175.561 123.262 175.412C123.263 175.408 123.265 175.403 123.266 175.398C123.317 175.25 123.478 175.173 123.627 175.223C123.775 175.273 123.853 175.434 123.802 175.582C123.802 175.584 123.802 175.584 123.802 175.584ZM151.332 183.48C151.214 183.553 151.06 183.518 150.985 183.402C150.911 183.285 150.946 183.131 151.062 183.056C151.178 182.982 151.334 183.017 151.408 183.133C151.409 183.133 151.409 183.134 151.41 183.135C151.483 183.253 151.448 183.406 151.332 183.48ZM148.097 178.324C147.98 178.396 147.826 178.361 147.751 178.246C147.673 178.131 147.703 177.975 147.818 177.897C147.934 177.82 148.09 177.851 148.168 177.965C148.171 177.969 148.173 177.973 148.176 177.978C148.25 178.091 148.22 178.243 148.107 178.317C148.103 178.321 148.1 178.322 148.097 178.324ZM144.965 173.019C144.955 173.082 144.917 173.136 144.863 173.168C144.745 173.24 144.591 173.205 144.516 173.09C144.439 172.971 144.475 172.812 144.593 172.735C144.594 172.734 144.595 172.734 144.596 172.734C144.667 172.689 144.755 172.681 144.833 172.716L144.844 172.717C144.887 172.734 144.924 172.769 144.943 172.812C144.985 172.874 144.994 172.951 144.965 173.019ZM126.114 187.54C126.077 187.676 125.94 187.76 125.802 187.731C125.671 187.702 125.588 187.572 125.617 187.441C125.618 187.438 125.618 187.435 125.619 187.43C125.647 187.295 125.781 187.208 125.917 187.238C125.918 187.238 125.92 187.238 125.921 187.238C126.054 187.273 126.139 187.405 126.114 187.54ZM127.476 181.624C127.443 181.757 127.308 181.838 127.175 181.807C127.044 181.778 126.96 181.648 126.99 181.518C126.99 181.514 126.991 181.511 126.992 181.507C127.02 181.371 127.154 181.285 127.29 181.314C127.291 181.314 127.292 181.315 127.294 181.315C127.429 181.352 127.51 181.489 127.476 181.624ZM128.851 175.691C128.823 175.826 128.689 175.912 128.554 175.884C128.552 175.884 128.551 175.883 128.549 175.883C128.421 175.859 128.336 175.734 128.361 175.607C128.362 175.599 128.364 175.592 128.366 175.584C128.394 175.449 128.528 175.362 128.664 175.392C128.665 175.392 128.667 175.392 128.668 175.392C128.801 175.426 128.881 175.557 128.851 175.691ZM139.198 184.768C139.216 184.904 139.121 185.032 138.985 185.053C138.849 185.076 138.72 184.986 138.696 184.851C138.676 184.714 138.765 184.583 138.901 184.554C139.042 184.533 139.175 184.627 139.198 184.768ZM138.184 178.768C138.211 178.898 138.127 179.026 137.996 179.053C137.991 179.054 137.986 179.055 137.981 179.055C137.846 179.078 137.716 178.988 137.693 178.853C137.673 178.716 137.762 178.585 137.897 178.556C138.035 178.537 138.162 178.631 138.184 178.768ZM137.179 172.77C137.203 172.905 137.111 173.034 136.976 173.057C136.841 173.082 136.711 172.99 136.688 172.855C136.665 172.721 136.756 172.591 136.891 172.568C137.026 172.545 137.156 172.635 137.179 172.77ZM116.352 179.908C116.278 180.017 116.129 180.045 116.02 179.972C116.015 179.969 116.012 179.966 116.007 179.963C115.892 179.886 115.862 179.731 115.939 179.616C115.94 179.614 115.942 179.612 115.944 179.608C116.029 179.499 116.185 179.476 116.299 179.555C116.41 179.634 116.438 179.788 116.359 179.899C116.356 179.902 116.355 179.905 116.352 179.908ZM119.898 174.954C119.816 175.068 119.658 175.095 119.542 175.018C119.429 174.932 119.407 174.773 119.491 174.66C119.572 174.554 119.721 174.527 119.834 174.6C119.948 174.675 119.981 174.828 119.905 174.943C119.905 174.946 119.902 174.951 119.898 174.954ZM136.788 173.601C136.785 173.682 136.717 173.746 136.635 173.742C136.554 173.739 136.49 173.672 136.493 173.59C136.496 173.509 136.564 173.445 136.646 173.449C136.727 173.452 136.791 173.519 136.788 173.601ZM136.919 170.018C136.911 170.101 136.839 170.163 136.757 170.157C136.675 170.155 136.611 170.087 136.614 170.005C136.614 169.927 136.678 169.864 136.756 169.864C136.76 169.864 136.764 169.864 136.768 169.864C136.852 169.864 136.919 169.931 136.92 170.014C136.919 170.015 136.919 170.016 136.919 170.018ZM136.548 174.889C136.533 174.975 136.452 175.034 136.365 175.019C136.36 175.018 136.352 175.017 136.346 175.015C136.257 174.994 136.201 174.903 136.222 174.814C136.246 174.725 136.332 174.667 136.424 174.679C136.517 174.703 136.572 174.796 136.548 174.888C136.548 174.889 136.548 174.889 136.548 174.889ZM137.44 170.893C137.416 170.985 137.323 171.041 137.231 171.017C137.23 171.017 137.23 171.017 137.23 171.017C137.14 170.996 137.084 170.905 137.105 170.816C137.129 170.727 137.215 170.669 137.307 170.681C137.399 170.707 137.456 170.798 137.44 170.893ZM144.965 173.019C144.945 173.033 144.923 173.044 144.899 173.05C144.809 173.067 144.722 173.007 144.705 172.917C144.705 172.915 144.704 172.913 144.704 172.911C144.69 172.822 144.745 172.737 144.833 172.715L144.843 172.716C144.933 172.7 145.02 172.759 145.037 172.849C145.037 172.852 145.038 172.853 145.038 172.855C145.051 172.921 145.022 172.987 144.965 173.019ZM150.357 183C150.384 183.158 150.276 183.307 150.117 183.333C149.957 183.359 149.809 183.251 149.782 183.093C149.757 182.935 149.864 182.786 150.022 182.761C150.182 182.735 150.331 182.842 150.357 183ZM149.269 176.065C149.289 176.226 149.178 176.372 149.018 176.397C148.858 176.417 148.714 176.305 148.693 176.146C148.674 175.987 148.786 175.843 148.945 175.824C149.102 175.805 149.244 175.911 149.269 176.065ZM122.569 183.216C122.469 183.344 122.286 183.372 122.151 183.28C122.022 183.181 122 182.996 122.1 182.869C122.197 182.746 122.373 182.719 122.501 182.81C122.63 182.906 122.66 183.085 122.569 183.216ZM126.716 177.543C126.62 177.67 126.44 177.699 126.309 177.609C126.178 177.516 126.147 177.334 126.242 177.203C126.335 177.073 126.517 177.042 126.649 177.136L126.649 177.137C126.779 177.232 126.808 177.411 126.716 177.543ZM130.863 171.868C130.767 171.996 130.587 172.026 130.455 171.934C130.328 171.834 130.299 171.652 130.39 171.518C130.49 171.39 130.676 171.367 130.804 171.467C130.928 171.564 130.953 171.74 130.863 171.868ZM137.601 186.348C137.555 186.501 137.401 186.594 137.244 186.563C137.09 186.52 136.999 186.363 137.038 186.209C137.072 186.055 137.224 185.957 137.38 185.991C137.381 185.991 137.384 185.991 137.385 185.992C137.543 186.031 137.639 186.189 137.601 186.348C137.601 186.347 137.601 186.348 137.601 186.348ZM139.254 179.515C139.216 179.673 139.057 179.769 138.898 179.731H138.897C138.745 179.694 138.652 179.539 138.69 179.387C138.725 179.231 138.88 179.134 139.037 179.17C139.193 179.205 139.289 179.36 139.254 179.515ZM140.906 172.694C140.873 172.848 140.72 172.945 140.566 172.912C140.564 172.911 140.562 172.911 140.56 172.911C140.401 172.877 140.3 172.721 140.333 172.562C140.366 172.403 140.523 172.302 140.683 172.336C140.842 172.369 140.944 172.525 140.91 172.684C140.908 172.687 140.907 172.691 140.906 172.694ZM141.871 188.605C141.836 188.76 141.681 188.858 141.525 188.822C141.37 188.787 141.272 188.632 141.308 188.477C141.342 188.326 141.491 188.229 141.643 188.259C141.803 188.291 141.904 188.446 141.871 188.605ZM143.232 181.742C143.199 181.901 143.043 182.002 142.884 181.969C142.73 181.934 142.63 181.786 142.654 181.632C142.69 181.474 142.843 181.371 143.004 181.395C143.162 181.433 143.262 181.585 143.232 181.742ZM144.593 174.881C144.561 175.039 144.404 175.14 144.245 175.107C144.088 175.077 143.986 174.926 144.015 174.77C144.045 174.614 144.197 174.512 144.354 174.542C144.512 174.574 144.618 174.723 144.593 174.881ZM155.095 177.846C155.125 178.001 155.023 178.15 154.868 178.179C154.868 178.179 154.867 178.179 154.866 178.18C154.709 178.214 154.555 178.115 154.52 177.96C154.49 177.801 154.593 177.648 154.752 177.615C154.909 177.587 155.061 177.688 155.095 177.846ZM130.036 179.953C129.943 180.086 129.761 180.12 129.627 180.03C129.496 179.941 129.461 179.763 129.55 179.632C129.631 179.499 129.806 179.457 129.939 179.538C129.943 179.54 129.946 179.542 129.95 179.544C130.086 179.63 130.128 179.809 130.042 179.945C130.039 179.949 130.038 179.951 130.036 179.953ZM133.928 174.133C133.835 174.265 133.653 174.299 133.519 174.209C133.388 174.12 133.353 173.943 133.442 173.812C133.524 173.679 133.698 173.637 133.832 173.717C133.835 173.72 133.838 173.722 133.843 173.724C133.978 173.81 134.019 173.989 133.934 174.124C133.931 174.128 133.929 174.13 133.928 174.133ZM141.721 176.529C141.672 176.641 141.543 176.691 141.432 176.643C141.324 176.596 141.272 176.471 141.315 176.362C141.355 176.254 141.477 176.199 141.586 176.241C141.592 176.243 141.6 176.246 141.606 176.249C141.714 176.297 141.765 176.42 141.721 176.529ZM152.942 176.001C152.938 176.121 152.839 176.216 152.718 176.215C152.6 176.207 152.507 176.11 152.505 175.992C152.507 175.872 152.607 175.777 152.726 175.779C152.727 175.779 152.728 175.779 152.729 175.779C152.845 175.777 152.942 175.87 152.943 175.985C152.942 175.992 152.942 175.996 152.942 176.001Z" fill="white"/>
<path d="M82.982 142.567C82.982 142.567 85.5035 147.769 94.3211 148.128C103.138 148.488 105.122 149.92 111.602 154.049C118.083 158.178 130.321 159.786 142.567 140.775C153.806 123.31 157.611 104.037 155.636 93.7817C152.637 94.8789 149.558 95.7469 146.426 96.3784C145.412 96.585 144.467 96.7465 143.574 96.8688C141.952 97.1059 138.724 97.2689 137.571 97.3373C135.487 104.2 133.058 130.128 117.442 127.034C107.658 125.144 98.1826 121.921 89.2789 117.457L82.982 142.567Z" fill="url(#paint5_linear)"/>
<path d="M136 169.07C143.572 172.41 154.242 175.13 169.186 175.735C172.692 175.881 176.441 175.899 180.433 175.789C192.648 161.58 183.331 146.275 179.841 136.464C176.359 126.644 179.702 126.299 173.099 109.555C172.372 107.834 171.533 106.164 170.586 104.553C169.486 120.363 163.26 138.103 154.611 153.178C149.238 162.544 143.089 167.463 136 169.07Z" fill="url(#paint6_linear)"/>
<path d="M79.4837 149.354C79.4837 149.354 82.3358 157.634 96.5263 159.871C110.717 162.115 113.4 166.259 120.38 168.182C126.038 169.745 131.235 170.158 136.001 169.071C143.088 167.462 149.239 162.544 154.612 153.176C163.26 138.102 169.487 120.361 170.587 104.552C168.835 101.458 166.87 98.4896 164.706 95.6659C162.393 92.8321 160.486 90.7098 158.933 89.1085C156.858 88.1052 140.878 85.3564 138.355 85.7544C138.355 85.7544 139.401 109.187 128.055 124.154C126.825 125.771 128.991 122.773 128.055 124.154C123.616 130.701 119.568 131.587 115.801 131.587C111.42 131.587 96.2657 127.539 88.1013 120.231L79.4837 149.354Z" fill="#428DFC"/>
<path d="M144.674 80.3042C141.359 83.1402 133.843 87.8911 129.316 86.0642C123.9 83.8736 122.388 79.4209 121.387 79.5832C120.389 79.752 118.166 79.5948 117.888 78.5515C117.607 77.5176 119.587 73.8733 119.065 69.9758C119.017 69.6135 118.977 69.2628 118.957 68.9165L118.96 68.9063C118.945 68.8241 118.937 68.7404 118.935 68.6567C118.93 68.6174 118.93 68.5767 118.934 68.5374C118.936 68.5236 118.935 68.5098 118.933 68.4959C118.933 68.4443 118.93 68.3868 118.927 68.3286C118.922 67.9124 118.922 67.2962 118.984 66.5635C119.008 66.2216 119.048 65.8469 119.105 65.4497C119.165 65.0022 119.261 64.5264 119.376 64.0411C119.384 64.0062 119.392 63.9713 119.4 63.9371C119.43 63.8163 119.453 63.6999 119.486 63.5769C119.542 63.3608 119.608 63.1469 119.68 62.9287C119.732 62.7577 119.793 62.5904 119.859 62.4281C119.886 62.351 119.919 62.2695 119.951 62.1888C120.009 62.0396 120.072 61.8875 120.14 61.7413C120.151 61.7086 120.164 61.6766 120.181 61.646C120.184 61.6518 120.182 61.662 120.191 61.6736C120.273 61.9829 120.381 62.2848 120.515 62.5758C120.551 62.6711 120.602 62.7759 120.653 62.8799C120.846 63.2663 121.072 63.6344 121.33 63.98C121.369 64.0404 121.415 64.0964 121.464 64.1582C121.509 64.2143 121.558 64.2761 121.607 64.3394C121.706 64.4631 121.814 64.5904 121.929 64.7126C121.94 64.7301 121.954 64.7388 121.966 64.7563C122.13 64.9411 122.303 65.1179 122.484 65.2845C122.547 65.3551 122.618 65.4104 122.687 65.4773C122.69 65.4817 122.696 65.4839 122.701 65.4853C122.836 65.6112 122.986 65.737 123.143 65.8578L123.151 65.8702C123.226 65.9335 123.307 65.991 123.389 66.0499C123.744 66.3249 124.116 66.5774 124.503 66.8073C124.635 66.8924 124.78 66.9688 124.929 67.0525C124.999 67.0925 125.064 67.1274 125.14 67.1638C125.209 67.2038 125.283 67.2511 125.358 67.2867C125.397 67.3078 125.439 67.3268 125.48 67.3442C125.591 67.4097 125.711 67.4599 125.834 67.5166C125.957 67.5741 126.08 67.6309 126.21 67.684C126.332 67.7415 126.456 67.7982 126.591 67.8477C126.931 67.9859 127.289 68.114 127.663 68.2391C127.871 68.309 128.087 68.3744 128.305 68.4465C129.138 68.688 129.983 68.8859 130.837 69.0365L131.393 69.1376C133.098 69.4308 134.758 69.9336 136.338 70.6335C136.571 70.7652 136.806 70.9034 137.052 71.0424C137.719 71.428 138.355 71.8638 138.954 72.3491C141.498 74.4794 143.467 77.215 144.674 80.3042Z" fill="#FFBEB6"/>
<path d="M117.208 70.9513C117.967 72.0912 119.509 72.4005 120.653 71.6428C121.067 71.3683 121.389 70.9767 121.577 70.5181C121.723 70.1695 121.205 69.8776 121.057 70.2306C120.698 71.2089 119.612 71.7119 118.63 71.3552C118.261 71.2206 117.941 70.9738 117.718 70.6499C117.499 70.3398 116.986 70.6397 117.208 70.9513Z" fill="#1C2868"/>
<path d="M134.371 47.6312C136.233 47.0877 138.178 46.8804 140.114 47.0186H140.19C147.262 47.2492 152.639 51.2108 156.004 56.8697C157.919 59.7712 159.333 62.9717 160.188 66.3389C161.932 72.4307 163.688 84.0294 172.093 83.726C172.464 83.7129 172.464 84.2877 172.093 84.3008C166.724 84.4943 163.978 79.8488 162.259 75.3766C161.127 72.4285 160.393 69.3437 159.517 66.3352C159.754 67.5924 159.914 68.8613 160.001 70.1367C160.946 83.7551 170.856 86.0382 170.856 86.0382C166.164 89.1674 161.123 91.7437 155.835 93.7132C152.773 94.8438 149.626 95.7358 146.425 96.3789C145.411 96.5855 144.466 96.7471 143.573 96.8693C140.984 97.2993 138.354 97.4513 135.732 97.3218C131.498 91.7378 133.064 86.0593 134.845 81.3301C132.18 86.431 130.789 91.1456 133.583 96.8416C133.745 97.172 133.249 97.4644 133.086 97.1319C131.405 93.922 130.93 90.2194 131.747 86.6908C132.923 81.886 137.314 78.0147 136.954 73.0455C136.604 71.722 135.439 70.7646 132.895 70.2829C132.779 70.2604 132.664 70.2451 132.541 70.2211C119.918 68.1454 120.179 61.6498 120.179 61.6337C119.219 63.9372 118.801 66.4283 118.957 68.918C114.168 56.6471 124.992 50.3355 134.371 47.6312Z" fill="#E94A47"/>
<defs>
<linearGradient id="paint0_linear" x1="221.001" y1="267.558" x2="82.1065" y2="267.558" gradientUnits="userSpaceOnUse">
<stop stop-color="#A1C3FC"/>
<stop offset="0.6955" stop-color="#81AEF2"/>
<stop offset="1" stop-color="#78A9EF"/>
</linearGradient>
<linearGradient id="paint1_linear" x1="13.1195" y1="265.893" x2="69.2919" y2="308.256" gradientUnits="userSpaceOnUse">
<stop offset="0.1291" stop-color="#428DFC"/>
<stop offset="0.9987" stop-color="#1D72D8"/>
</linearGradient>
<linearGradient id="paint2_linear" x1="23.9979" y1="175.872" x2="115.384" y2="223.228" gradientUnits="userSpaceOnUse">
<stop stop-color="#23286B"/>
<stop offset="1" stop-color="#151A4F"/>
</linearGradient>
<linearGradient id="paint3_linear" x1="90.0637" y1="81.2011" x2="85.348" y2="106.143" gradientUnits="userSpaceOnUse">
<stop stop-color="#FFBEB6"/>
<stop offset="1" stop-color="#F2A19C"/>
</linearGradient>
<linearGradient id="paint4_linear" x1="73.5256" y1="116.378" x2="88.9364" y2="131.952" gradientUnits="userSpaceOnUse">
<stop stop-color="#FFBEB6"/>
<stop offset="1" stop-color="#F2A19C"/>
</linearGradient>
<linearGradient id="paint5_linear" x1="126.831" y1="95.9102" x2="114.751" y2="143.245" gradientUnits="userSpaceOnUse">
<stop offset="0.1291" stop-color="#428DFC"/>
<stop offset="0.9987" stop-color="#1D72D8"/>
</linearGradient>
<linearGradient id="paint6_linear" x1="176.823" y1="115.251" x2="156.777" y2="181.405" gradientUnits="userSpaceOnUse">
<stop offset="0.1291" stop-color="#428DFC"/>
<stop offset="0.9987" stop-color="#1D72D8"/>
</linearGradient>
</defs>
</svg>
